<?xml version="1.0" encoding="utf-8"?>
<!-- Generator: Adobe Illustrator 19.0.0, SVG Export Plug-In . SVG Version: 6.00 Build 0)  -->
<svg version="1.1" id="Layer_1" xmlns="http://www.w3.org/2000/svg" xmlns:xlink="http://www.w3.org/1999/xlink" x="0px" y="0px"
	 viewBox="0 0 600 200" style="enable-background:new 0 0 600 200;" xml:space="preserve">
<style type="text/css">
	.st0{fill:#991B1F;}
</style>
<g id="XMLID_1_">
	<path id="XMLID_3_" class="st0" d="M130.1,73.8c-1.5,3.8-3.2,5.8-5.4,6.3c-0.4,1.7-0.9,2.6-1.5,2.6c-0.7,0-1.1-0.1-1.3-0.4
		c-0.1-0.2-0.3-0.1-0.6,0.1c1.2,1.7,2,3,2.3,3.8c1.1-1.4,1.8-2.6,2.2-3.6c0.2,1.2,0.2,3.1,0.1,5.6c-0.1,2.6,0,4.5,0.3,5.9
		c0-0.5-0.3-1-0.8-1.4c-0.4,0.9-0.6,1.6-0.6,1.9c0,0.9,0.6,1.5,1.7,1.9c-2.4,2.3-4.3,4.1-5.6,5.5c0-1.4,0.2-2.2,0.5-2.6
		c-1-1.1-1.9-1.9-2.6-2.4c-0.4,0.3-0.6,1-0.6,2c-1.2-0.7-2.2-1.2-3.1-1.4c-0.2,0.3-0.3,0.5-0.3,0.8c0,0.4,0.2,0.9,0.6,1.3
		c-1.8-0.9-3.1-1.6-3.8-2c-0.2,0.3-0.3,0.7-0.3,1.2c0,0.9,0.3,2,1,3.2c1,0,1.5-0.2,1.5-0.6c0-0.2-0.1-0.3-0.3-0.5
		c1.6,1.6,3.5,2.7,5.8,3.3c0.3-0.3,0-1-1-1.9c0.4,0,1,0.1,1.8,0.3c0.8,0.2,1.4,0.3,1.8,0.3c-0.3,1.3-1.4,5.1-3.5,11.5
		c-1.5,5-2.6,8.8-3.1,11.5c0.1,0.1,0.6,0.3,1.4,0.5c0.9,0.3,1.3,0.5,1.3,0.8c0.2-0.2,0.3-0.3,0.3-0.5c0-0.8-0.5-1.2-1.4-1.2
		c0.3-0.3,1-0.8,1.9-1.3c0.9-0.5,1.6-1,2-1.4c1.6,1.5,2.4,2.7,2.4,3.6c-1.2-1.2-2.1-1.8-2.8-1.8c-0.3,0-0.5,0-0.8,0.1
		c0,0.3,0.4,1.1,1.2,2.2c0.8,1.2,1.3,1.9,1.5,2.4c0.9-0.9,1.5-1.4,1.7-1.4c0,1.3-0.5,2.4-1.5,3.5c-0.2,0-0.6-0.1-1.2-0.3
		c-0.6-0.2-1.1-0.3-1.5-0.3c-0.9,0-1.7,0.4-2.4,1.2c-1.4,1.3-2.2,2-2.6,2.3c0-0.9-0.2-1.6-0.6-2c-0.6,0-0.9,0.1-0.9,0.4
		c0,0.2,0.2,0.4,0.6,0.8c-1.6,0-5.2-0.1-10.6-0.4c-1.7-0.1-3.1,0-4.1,0.3c-1.8,0.4-2.6,1.3-2.4,2.6c-0.8-1.5-2.3-2.3-4.7-2.3h-6
		l-0.3-6.5c-2.1-3.2-3.2-6.2-3.2-9c0-1.6,0.4-3,1.3-4.1c-0.9-0.9-2.5-6.1-5.1-15.5c-2.5-9.4-3.8-15.1-3.8-17v-5.1
		c2,0.4,4.1,0.6,6,0.6c1.7,0,3.4-0.2,5-0.5c-2-0.4-5.8-0.6-11.6-0.4l-0.4-1.3c-0.1-0.5,0-0.9,0.3-1.2c-0.6-0.8-1.6-1.2-2.9-1.2
		c-1.2,0-2,0.3-2.3,0.8l-0.8,2.8c-1.1-0.3-2.3-0.1-3.5,0.5c0.3,0.3,1.5,0.4,3.6,0.4l-11.9,56.7H29.6L1.7,31.6H28l15.2,74
		c1.3-3.8,2.9-6.1,4.7-6.9c-0.3-0.3-1.3-0.4-2.9-0.4c5-20.8,8.1-37.8,9.2-50.9c0,1,0.2,1.8,0.6,2.2c1.3-3.3,1.9-5.4,1.9-6.3v-2.7
		l-1.2-1.2c-0.5,0.5-1,0.8-1.5,0.8c-0.3,0-0.7-0.2-1-0.5c0.6,0,1.4-0.6,2.6-1.7c0.7,0.9,1.2,1.7,1.4,2.2c0.9-3.8,1.6-6.7,2-8.7h11.5
		l1,0.5c-0.2,0.4-0.1,0.7,0.1,0.9c0.3-0.4,0.5-0.9,0.5-1.3h11.1c0.3-0.3,0-1.1-1-2.2h2.6c0.8-0.3,2.4,0,4.9,0.8
		c2.9,0.9,4.4,2.1,4.4,3.5c0,2-0.9,3.4-2.7,4.1c-4.1,1.5-6.4,2.5-6.9,2.8c2,3.3,3.7,8.4,4.9,15.2c1.3,7.6,2.6,12.9,3.8,15.9
		c3.2,0.3,5.5,0.6,7.2,0.6h-6.5c-0.2,0.2-0.4,0.8-0.7,1.8c-0.3,1-1,1.8-2,2.4c0.3,0.3,1.2,0.4,2.8,0.4c0.9,10.7,2.6,16.6,5,17.9
		c0.3,0.5,1.1,0.8,2.6,0.8c2.5-10,4.2-17.5,5.1-22.7c-1.1-0.5-2-0.8-2.7-0.9h2.8l8.1-40.6h26.9C135.8,52.3,131.9,66.4,130.1,73.8z
		 M12.7,46.8l-1-0.5l0.9-1.8l1,0.4L12.7,46.8z M13.7,37c-0.9,0.1-1.5,0-1.7-0.3c0.6,0,1.4-0.6,2.6-1.7c0.6,1,0.9,1.8,0.9,2.2
		C15.2,37,14.6,36.9,13.7,37z M15.6,39.3l-1-0.8l1.8-2.2l1,0.6L15.6,39.3z M16.1,51.6v-2h1.3v2H16.1z M22.1,55.8
		c-0.3,0.6-0.5,1.2-0.5,1.7c0,0.5,0.3,1.4,0.9,2.7c0.6,1.3,0.9,2.1,1,2.6c-0.5-0.3-1.4-0.4-2.7-0.4c0.1-1.4-0.6-2.9-2-4.5
		c0.5-2.5,0.9-4.4,1-5.9c-0.3,0-0.6-0.4-1-1.3c-0.4-0.9-0.6-1.5-0.6-1.9c0.1,0.5,0.4,1,0.9,1.4c1.2-1.2,1.9-2.1,2-2.8
		c0.6,0.6,1.4,0.9,2.6,0.9C22.5,49.9,22,51.5,22,53c0,1.7,0.8,2.6,2.4,2.8H22.1z M21.7,41.5h-1.3l0.9-3.3h1.2L21.7,41.5z M23.9,48.3
		L20.6,46l0.6-1l3.5,2.4L23.9,48.3z M23.2,45.2c0-0.5,0.2-1.3,0.6-2.5c0.4-1.2,0.6-1.9,0.6-2.4h3.6L23.2,45.2z M23.4,109.1v-3.3h1.3
		v3.3H23.4z M27.3,38.8l-1-0.5l1-1.8l1,0.4L27.3,38.8z M29.1,109.2V106c0,1.2,0.5,1.8,1.5,1.8c0.6,0,1.5-0.1,2.8-0.3
		c1.2-0.2,2.2-0.3,2.8-0.3C33.3,108.3,30.9,109,29.1,109.2z M35,130.6l-0.4,1l1.9,0.9l0.4-1L35,130.6z M38,110.4
		c0.1-0.1,0.1-0.3,0.1-0.5c0-0.7-0.4-1.8-1.2-3.3c1,0.5,2,0.8,2.8,0.8C39.1,108.8,38.5,109.9,38,110.4z M47.2,107.8l-1-0.4L47,105
		h1.2L47.2,107.8z M50.9,99.1L49,98.7h2.3v3.3L50.9,99.1z M51.1,109.1c0.1-1,0.1-2,0.1-3.1c-0.7,1.6-1,3.6-1,5.9h2.8
		C51.9,111.6,51.2,110.6,51.1,109.1z M53.4,35v-1.9h1.3V35H53.4z M61.4,128.7c-1.7,2.8-2.7,4.5-3.1,5.1l-2,2c-0.5,0-1.3,0.1-2.4,0.3
		c1.6,1.5,2.6,2.5,2.9,2.9c-0.9,0.9-1.4,1.5-1.4,1.8c1.4,0,2,0.3,2,1c-0.4,0.4-0.6,1.1-0.5,1.9c0.3-0.7,1.3-3.1,2.9-7.3
		c1.1-2.9,2.3-5.2,3.5-6.9C62.8,129.6,62.2,129.3,61.4,128.7z M55,109.9v-1.9h1.3v1.9H55z M56.1,97.6c0.1-4.7,0.1-8,0.1-10l1,5
		c0.4,2.1,0.9,3.8,1.5,5H56.1z M58.3,112.4c-0.5,0-1-0.3-1.5-0.8c1.2,0,1.8-1.2,1.8-3.5c0,0.9,0.3,2.1,1,3.6
		C59.2,112.2,58.7,112.4,58.3,112.4z M58.3,76.8c0-0.3-0.1-0.9-0.3-1.7c-0.2-0.8-0.3-1.4-0.3-1.9c0.6,0,1.1,0.3,1.5,0.8l1.4-1.4h2.7
		C62.5,74.1,60.9,75.6,58.3,76.8z M58.7,106.9V105h1.2v1.9H58.7z M60.9,106.9V105h1.3v1.9H60.9z M63.2,60.2l-0.9-2.4l1.2-0.4
		l0.9,2.8H63.2z M64.8,22.2l-1,0.4l0.9,1.7h1L64.8,22.2z M63.8,85.4v-2.7h1.3v2.7H63.8z M66.8,72.5c-0.5-0.7-0.8-1.2-0.8-1.5
		c-0.9,1.1-1.5,2-1.9,2.6c1.4,0.3,2.5,0.4,3.5,0.3C67.5,73.7,67.3,73.3,66.8,72.5z M68.6,8.6c0,0.3-0.3,0.8-0.8,1.7
		c-0.5,0.9-0.8,1.4-0.8,1.7c1.5,1.5,2.6,2.3,3.3,2.3c0.8,0,1.6-0.6,2.6-1.8C70.3,9.9,68.9,8.6,68.6,8.6z M69.2,114.1l-1,0.6l1.7,2.6
		l1.2-0.6L69.2,114.1z M69.3,71.7c1-3.2,1.8-6,2.4-8.6c0,1.2,0.6,4.1,1.8,8.6H69.3z M75.2,117.3c0,0.3,0.7,0.8,2,1.7
		c-0.4,0.4-0.6,0.9-0.6,1.5h2.8C77.2,118.3,75.8,117.3,75.2,117.3z M76.2,133.4l-0.5,1l1.9,0.9l0.4-1L76.2,133.4z M77.5,3.5
		c0,0.3-0.1,0.7-0.3,1.3c-0.2,0.6-0.3,1-0.3,1.3c0-0.5,0.3-0.9,0.8-1.2c1.3,2,1.9,2.7,1.9,2.3c-0.3,0.2-0.4,0.3-0.5,0.5l0.6,0.8
		c0.3,0.5,0.5,1,0.5,1.5c0,0.4,0,0.7-0.1,0.9l-0.6-0.6c-0.4-0.1-0.6,0.5-0.6,1.8c1.4,0,2.2,0.3,2.2,0.9c-0.5,0.3-0.8,0.5-0.8,0.8
		s0.3,0.6,1,1c0.5,0.1,1.2,0,2.2-0.3c0.9-0.3,1.6-0.4,1.9-0.4c-2-0.6-2.9-1.5-2.9-2.8c0.8-0.8,1.2-1.4,1.2-1.9
		c-0.9,0.9-1.6,1.4-2,1.4L81,8.4c1.2-0.6,2-0.9,2.6-0.9c0.2,0,0.3,0,0.4,0.1c0,0.4,0.4,0.8,1.2,1.1C85.8,9,86.4,9.1,86.9,9
		C82.2,5.9,79,4.1,77.5,3.5z M80.6,121.5l-2,1.4c-0.2,0-0.4-0.1-0.8-0.2c-0.4-0.1-0.7-0.2-0.8-0.2c0.4,0,0.6,0.6,0.6,1.8
		c0.5-0.5,1.3-0.8,2.3-0.8c0.7,0,1.7,0.7,3.2,2.2C81.7,123.2,80.9,121.8,80.6,121.5z M78.3,128.8H77v2.6h1.3V128.8z M79.4,110.5
		l-0.9-1.7l1-0.4l0.9,2H79.4z M82.1,83.2v-2.7h1.3v2.7H82.1z M83.9,130.1l-1,0.4l0.9,1.7h1L83.9,130.1z M87.2,30.6l-1.8,0.8v1.2
		l2.2-1L87.2,30.6z M92.6,139.6c-2.1-1.2-3.8-2.2-5-2.9c1.2,1,2.1,1.6,2.8,1.8l-1.8,1.8c-0.3-0.3-0.6-0.5-1.2-0.7
		c-0.5-0.2-0.9-0.4-1.2-0.7v4.4c0,0.7,0,1.5,0.1,2.4v1.4c0-0.3,0.2-0.6,0.5-0.8c0.3-0.1,0.7,0,1,0.4c0-0.3-0.4-0.9-1.2-1.7
		c2-1.3,3-1.9,3.2-1.9c0.4,0,0.9,0.1,1.5,0.3c0.6,0.2,0.9,0.3,1,0.3V139.6z M87.9,13.9c1,1,1.5,2,1.5,2.9c0-0.4,0.3-0.9,1-1.5
		C89.3,14.6,88.5,14.1,87.9,13.9z M89.5,87.1l-0.8-0.8l1.8-1.7l0.8,0.6L89.5,87.1z M91.2,118.7l-1-0.5l0.9-2.3h1.2L91.2,118.7z
		 M90.6,3.6v3.5c1.9-0.6,2.8-1.7,2.8-3.5H90.6z M93.1,109l-1.8,0.9v1l2.2-0.9L93.1,109z M92.9,83.9h-1.3l0.9-3.3h1.3L92.9,83.9z
		 M93.1,10L92,14.8c2.2,1.1,3.7,1.6,4.4,1.4C94.2,13,93.1,11,93.1,10z M92.7,117.3c0.8,1.5,1,2.9,0.8,4.1c0.3-0.9,0.6-1.4,1-1.4
		c1.3,0,1.9-0.5,1.9-1.4c0-0.1-0.1-0.1-0.3-0.1c-0.1,0-0.2,0-0.3,0.1C95.1,117.7,94,117.3,92.7,117.3z M104.3,115.1
		c-0.4,0-1-0.3-1.7-0.9c-2.3,1.5-3.9,2.3-4.7,2.3l0.8,3.3c1,0.5,2.9,0.8,5.6,0.8V115.1z M100.8,101.2c0.3,0-0.1,1-1.2,3.1
		c-0.9-3.2-1.4-5.8-1.7-7.9c1.7,1.7,2.6,3.4,2.6,5C100.6,101.2,100.7,101.2,100.8,101.2z M99.4,79.6c0-0.3-0.1-0.7-0.4-1.3
		c-0.3-0.6-0.4-1.1-0.4-1.3h5C102.9,77.7,101.5,78.6,99.4,79.6z M102.5,74.5c-0.9-0.8-1.5-1.2-1.7-1.2c0,0.3,0.1,0.7,0.4,1.3
		c0.3,0.6,0.4,1,0.4,1.3h2.8C104,75.8,103.4,75.3,102.5,74.5z M108.4,101.6c-0.9-0.7-1.5-1.1-1.9-1.1c-0.6,1.1-0.9,2.6-0.8,4.4
		c-0.5-0.6-0.8-1.2-0.8-1.9c0-0.3,0.1-0.6,0.2-1c0.1-0.4,0.2-0.7,0.2-0.9c0-0.6-1.2-0.8-3.6-0.5v-2.7c0.1,0.1,0.7,0.5,1.8,1.3
		c0.8,0.5,1.4,0.8,2,0.8c0.4,0,1-0.1,1.7-0.3c0.7-0.2,1.2-0.3,1.4-0.3c1,1,1.5,2.2,1.5,3.5C109.8,102.7,109.2,102.3,108.4,101.6z
		 M105.4,115c-0.6-0.6-1.4-0.9-2.4-0.9c0.6-0.6,0.9-1.5,0.9-2.7c0.5,0.5,1.3,0.8,2.3,0.8c0.3-0.3,0.4-0.6,0.4-1c0-0.5-0.2-1.2-0.5-2
		c-1-0.1-2,0.7-2.8,2.3c0-1.3,1-2.9,3.1-5c1.3,2.4,2.3,4.2,3.2,5.4C107.5,113.6,106.1,114.6,105.4,115z M104.3,63l-0.8-2.4l1-0.4
		l0.9,2.8H104.3z M108.2,77.1v-1.2h4.1v1.2H108.2z M110.3,8.1c0,0.6,0.3,1.5,0.9,2.6c1.1-0.4,1.7-1.2,1.9-2.4V5.8
		C111.2,5.8,110.3,6.6,110.3,8.1z M113.5,144.5h-1.3v1.9h1.3V144.5z M114.5,109.1c0.2-0.3,0.2-0.7,0-1c-0.3-0.4-0.6-0.6-0.9-0.6
		c1.5,0,2.2-0.3,2.2-0.8C115.8,107.8,115.4,108.6,114.5,109.1z M116.9,139.9c-0.7-0.3-1.2-0.4-1.4-0.4c0,2.6-0.5,4.4-1.5,5.4
		c1.9,0,3.2,0.6,4.1,1.7c0-3.9,0.1-6,0.3-6.3C118.1,140.3,117.6,140.2,116.9,139.9z M116.8,110.8l-0.9,2.4l1,0.4l0.9-2.8H116.8z
		 M116.3,77.1v-1.2h1.9v1.2H116.3z M116.4,97.7c0-0.3,0.1-0.7,0.4-1.4c0.3-0.7,0.4-1.2,0.4-1.4c0.3,0.8,0.7,1.4,1.2,1.8
		C117.5,96.9,116.8,97.3,116.4,97.7z M119.8,97.6l-0.9-2.4l1-0.4l0.9,2.8H119.8z M122.7,108.4c0.9,0.9,1.3,1.8,1.2,2.9
		c0-0.5,0.6-1.4,1.8-2.8C123.8,108.6,122.9,108.5,122.7,108.4z M125.9,21.5c-0.8-0.2-1.5-0.4-2.3-0.6c0.3,0.6,0.5,1.2,0.5,1.7
		c0,0.8-0.4,1.5-1.3,2.3c0.3,0,0.9-0.1,1.7-0.3c0.8-0.2,1.4-0.3,1.7-0.3C126.4,22.8,126.3,21.9,125.9,21.5z M123.6,106.1v1l2.6,0.9
		l0.4-1L123.6,106.1z M128.5,45.2c-1.5,1.8-2.2,2.2-2.2,1.3c0-0.2,0.1-0.4,0.3-0.8l-1.5-0.9c0.1-0.3,0.7-2.1,1.8-5.4
		c1.6,1,3,1.8,4.1,2.4C130,43,129.2,44.1,128.5,45.2z M127.9,53c-0.5-1.7-0.9-2.9-1.2-3.5c-0.7,1.3-1,2.5-1,3.6
		c0,0.6,0.4,1.2,1.2,1.9l1,0.9C128.2,54.9,128.2,53.9,127.9,53z M127.4,50.1v-2.3c1.2,0.9,2.3,1.7,3.5,2.3H127.4z M128.7,73.4
		l-1-0.5l0.9-1.8l1,0.4L128.7,73.4z M129.9,68.1v-1.9h1.3v1.9H129.9z"/>
	<path id="XMLID_78_" class="st0" d="M52.8,104.7h-1.3v-1.9h1.3V104.7z M58.8,105.9h-4.7v-1.3h4.7V105.9z M63.8,106.7h-3.3v-1.3h3.3
		V106.7z M75.5,107.6c-2.1-0.1-4.5,0.8-7.2,2.6c1.5-0.7,2.4-1.5,2.9-2.6c-1.5-0.4-3.6-0.6-6.5-0.6l1.8-2c1.3,1.3,2,1.9,2.2,1.9
		c0.3,0,0.6-0.3,0.8-0.9c-0.3,0.8,0.7,1.2,3.2,1.2c0.5,0,0.9,0,1-0.1c0.1-0.2,0.1-0.4,0-0.6c-0.1-0.3-0.1-0.5-0.1-0.6L75.5,107.6z
		 M88,108.8c-1.5,0-2.9-0.3-4.2-0.9V106c-0.2,1.2-0.8,1.8-1.9,1.8c-0.8,0-1.2-0.1-1.4-0.3c0.4,0,0.6-0.6,0.6-1.8
		c-1.7,0.6-4,1.8-6.8,3.5c-2.8,1.8-4.9,2.9-6.4,3.5c6.9-2.9,11.2-4.4,12.9-4.4c0.8,0,2,0.1,3.6,0.2C86,108.8,87.2,108.8,88,108.8z
		 M78.1,93.3c-0.3,0-0.9,0.5-1.8,1.5c-1,1.3-1.7,2-1.9,2.2c-0.4-0.1-1-0.4-1.8-1c-0.1-0.3-0.1-0.6-0.1-0.9c0-0.7,0.4-1,1.2-1
		c1.3,0,2.3-0.6,3.1-1.9c0.4-1.3,0.9-2.5,1.4-3.7c-0.3,0.6-0.3,1.5-0.3,2.7C78.1,93.3,78.1,94,78.1,93.3z M77.6,105.6l-2,0.9v-1
		l1.7-0.9L77.6,105.6z M82.8,99.9l-0.6,1l-4-3.2l0.6-0.9L82.8,99.9z M81.2,104.1l-0.4,1l-2.4-0.8v-1.2L81.2,104.1z M85.4,99.5
		c-0.7,0.8-1,1.4-1,1.8c-0.2-0.9-1.7-3.2-4.6-7L85.4,99.5z M102.5,109.2c-0.5-0.5-1-0.8-1.4-0.8c-1.4,3.8-2,5.9-2,6.4
		c0,1.2,0.5,2.1,1.5,2.7c-1.1,0-1.7,0.6-1.7,1.7c-1.2-1-1.8-2.1-1.8-3.2c0-0.3,0.1-0.7,0.3-1.2c-1.2-1.6-3.2-3.4-6.1-5.2
		c0.8-0.1,2-0.4,3.7-0.9c0-1.3-1.2-2.1-3.5-2.6c-3.3-0.6-5.3-1.2-6-1.7c0.3,0,0.8,0.1,1.6,0.4c0.8,0.3,1.4,0.4,1.9,0.4
		c0.5,0,1.1,0,1.7-0.1c-0.4-1-1.8-2.7-4.2-5.1l11,10c2.2-1.3,3.4-2.7,3.6-4.4c0,0.3,0.3,0.9,0.8,1.8
		C102.2,108.4,102.5,109,102.5,109.2z M93.3,117.7c-0.5-0.2-1-0.6-1.4-1.4c-0.8-1-1.3-1.7-1.7-2c-0.3,0.9-0.3,1.9-0.3,3.1l0.3,3.1
		c0-1.2-0.9-2.9-2.6-5.1c0.9-0.9,1.4-1.8,1.4-2.7c0-0.4-0.2-0.8-0.6-1C89.3,112.1,90.9,114.2,93.3,117.7z M91.5,125.6h-1.3v-3.3h1.3
		V125.6z M97.6,110.9L95,112l-1.7-1.9c0.5,0,1.2,0.1,2.2,0.4C96.5,110.8,97.2,110.9,97.6,110.9z M104,117.8
		c-0.6-0.8-1.5-1.9-2.8-3.3c1.2,0,1.8-0.2,1.8-0.6C103,115.2,103.3,116.5,104,117.8z M106.8,111.6h-2.6v-1.3h2.6V111.6z M107.6,95.1
		h-1.9v-1.3h1.9V95.1z M113.3,112.4h-4.9v-1.3h4.9V112.4z M116.3,117.4c-0.3,0.2-0.9,0.6-1.8,1.2c-0.5-0.8-1.2-1.7-2.2-2.9
		c-0.3,0.3-1,0.9-1.9,1.5c0.5-0.4,1.2-1.4,1.9-2.9C112.9,115.3,114.2,116.4,116.3,117.4z M118.7,117.7h-1.2l-0.8-1.7l1-0.4
		L118.7,117.7z M121.5,114.3l-0.9,2.8l-1-0.4l0.9-2.4H121.5z M125.5,113.8h-3.3v-1.3h3.3V113.8z M128.6,118.6l-0.6,0.9l-3.2-2.4
		l0.6-0.9L128.6,118.6z M128.7,114.5l-1,0.6l-2.3-3.2l0.9-0.8L128.7,114.5z M133.7,116.6l-0.9,0.6l-4.6-6.1l1-0.6L133.7,116.6z
		 M131.9,94.8c-0.4-0.4-1.5-0.6-3.3-0.6v-2.8L131.9,94.8z M131.3,119.1h-1.2l-1.2-2.3l1-0.5L131.3,119.1z M135.9,119.5l-1.8-1.8
		l-0.8,0.8l1.7,1.7L135.9,119.5z M138.4,115.2H135V114h3.5V115.2z M163.5,133.4h-26.4v-5.5H150V77.5c0-2,1-4.4,2.9-7.3
		c-2-1.4-2.9-3-2.9-5c0-0.7-0.1-1.4-0.3-2c-0.1-0.2-0.4-0.5-1-1c-0.3-0.2-0.9-0.3-1.5-0.3c-2,0-3.1,0.7-3.1,2.2c0,0.6,0.3,1.3,0.8,2
		c-2.2-2.8-3.8-4.2-4.9-4.2c-0.5,0-1.5,0.5-2.8,1.4V31.9h26.2v14.8c-0.7,0-1.2-0.2-1.7-0.6c-0.2,0.1-0.8,0.6-1.8,1.4
		c-0.7,0.5-1.4,0.8-2,0.8c-1.3,0-1.9-0.3-1.9-0.8l-1,1.2c0.8,0.7,2.7,1.2,5.8,1.4c-0.9,0-1.9,0.5-2.8,1.4c0.3,0.3,0.7,0.4,1.4,0.3
		c0.4-0.2,0.9-0.3,1.4-0.4c0,1.6-0.5,5.9-1.4,12.9c0.9,0.9,2.3,2.1,4.2,3.6V133.4z M145.6,71.2l-1.8-1.4l-1.4,1.4
		c-0.3-0.3-0.9-0.6-1.5-0.6c-0.8-0.1-1.3,0-1.7,0.4v2.7c0.1,0.1,0.2,0.4,0.4,0.9c0,0.2,0.3,0.3,1,0.3c0.8,0,1.2-0.1,1.3-0.3
		c-0.1,0.3-0.1,0.1-0.1-0.8c0,1.7-0.5,3.5-1.4,5.4c-0.3-0.3-0.5-0.7-0.5-1.2c0-0.4,0.3-0.9,0.8-1.4c-0.4-0.4-0.9-0.6-1.3-0.6
		c-0.3,0-0.5,0.1-0.6,0.3c0-0.4-0.5-2.2-1.5-5.2v-6.8c0.1,0,0.5-0.1,1.2-0.4c0.7-0.3,1.2-0.4,1.7-0.4c0.9,0,2.1,0.6,3.5,1.9
		c1.4,1.3,2.1,2.4,2.1,3.3V71.2z M140,90.9c-0.3,0.3-1.2,1.2-2.7,2.6c0-0.9,0.1-2.4,0.4-4.3c0.3-1.9,0.4-3.3,0.4-4.3
		C138.5,86.3,139.1,88.4,140,90.9z M143.4,68.5c-0.1,0-0.6,0.1-1.4,0.4c-0.6,0.2-1.1,0.1-1.4-0.1c0.6-0.3,0.9-0.6,0.9-0.6
		c-0.3,0-0.9,0.3-1.6,0.9c-0.7,0.6-1.2,1.1-1.3,1.4C141.8,69.3,143.4,68.7,143.4,68.5z M142.3,94.8h-1l-0.9-1.7l1-0.4L142.3,94.8z
		 M148.4,126.4h-4.7v-5.9c0-2.7-0.5-4.4-1.5-5c0.1-0.6,0.5-2.3,1.2-5c0.5-2.1,0.8-4.1,0.8-5.8c0-2.6-0.6-5.1-1.9-7.4
		c0.9-0.9,1.4-2.5,1.7-4.6l0.5-4.2h4.1V126.4z M145,76.8c-0.9,0.5-1.6,0.8-2,0.8c0-0.5,0.1-1.2,0.4-2.2c0.3-0.9,0.4-1.6,0.4-2
		C144.5,74.1,145,75.3,145,76.8z M158.4,43.6v-1.3h-4v1.3H158.4z M159.2,63.6v-1.3l-3.3-0.8v1.2L159.2,63.6z M158.1,57.5l-1-2
		l-0.9,0.4l0.8,1.7H158.1z M161,119.8h-1.3v-1.9h1.3V119.8z M162.8,48.5h-1.9v-1.2h1.9V48.5z M163.5,54.2c-0.3,0.5-0.4,1.5-0.6,2.8
		c-0.1,1.4-0.3,2.3-0.6,2.8c0.2-2.2-0.1-3.8-0.9-4.7C162.4,54.5,163.1,54.2,163.5,54.2z M163.8,66.1h-1.2v-5.5h1.2V66.1z"/>
	<path id="XMLID_122_" class="st0" d="M168.1,48.5l-1,0.6l-2.4-3.6l1-0.6L168.1,48.5z M166.7,56h-1.3l-0.8,3.3h1.2L166.7,56z
		 M189.1,133.7h-24.1V63.4c-0.1-0.3,0.5-1.9,1.7-4.6c1.2-2.7,1.8-4.6,1.9-5.8c1.4,0.5,2.3,0.8,2.7,0.8c-0.6,1-1.5,3.2-2.6,6.5
		c-1.1,3.3-1.7,5.5-1.7,6.5c0,2.6,0.8,4,2.4,4c1.1,0,1.7,0.6,1.8,1.8c-0.3,0.9-0.4,1.7-0.4,2.6c0,0.4,0,0.9,0.1,1.4
		c0.9-0.9,1.4-1.3,1.5-1.4c0.3,0.3,0.3,1.1,0,2.3c-0.3,1.3-0.3,2.2-0.1,2.7c0.3-0.3,0.6-0.3,1.2-0.3c1,0.2,1.7,0.3,2,0.3
		c0.4,0,1.7-1.3,3.8-4c2.1-2.6,3.3-4,3.8-4c0.6,0,1.1,0.1,1.4,0.4l0.5,0.4c0.2-0.1,0.3-0.2,0.3-0.4c-0.2-0.1-0.8-0.6-1.8-1.7
		c0.9,0.9,2.2,2.1,3.8,3.6c0.3,0.9,0.4,1.9,0.4,3.1c0,2.5-0.7,6.2-2.2,11.1c-1.5,4.9-2.2,8.3-2.2,10.3v2.2l1.3,1.2
		c0.3,0,0.7-0.1,1.4-0.3c0.5-0.2,0.8-0.1,0.8,0.1c-0.6,0.3-1.8,0.3-3.7,0.1c-0.3,0.3-0.4,0.5-0.4,0.8c0,0.3,0.2,0.7,0.6,1.2
		c-0.9-0.1-1.8,0.9-2.8,2.8c0,2,0,2.4-0.1,1.4c0.1,0.7,0.5,1,1.2,1c0.8,0,1.1-0.1,1-0.3c-0.2-0.9-0.3-1.2-0.3-0.9c0,1.7,1,3,2.9,4
		c0.6,0,0.5,0.1-0.3,0.3c-0.5,0.2-0.9,0.1-1.3-0.3c-1.2,1.3-1.8,2-1.8,2.3c0.3,0.1,0.8,0.1,1.4,0.1c0.5,0,1.2,0,2.1-0.1
		c0.9-0.1,1.6-0.1,2.1-0.1c0.6,0,1.1,0,1.4,0.1V133.7z M252.1,133.7h-26.9l-19.3-34.9c-1.1,0-1.7-0.3-1.7-1c0-0.3,0.3-0.6,0.8-0.8
		c-2.4-2.4-3.6-4.5-3.6-6.4c0-1,1.5-3.7,4.4-7.9c0.2-0.3,0-0.6-0.4-1c-0.9,1.1-2.6,3-5,5.8c-1.4-0.6-2.5-2.3-3.5-5.2
		c-0.6-1.9-1.2-3.9-1.9-6c1.7-1.5,2.6-2.9,2.6-4.2c0-0.3,0-0.7-0.1-1c-0.4,0.3-1.3,1.8-2.7,4.4c-1-0.8-2.1-2-3.3-3.8
		c-1.5-2-2.5-3.4-3.2-4.1l-1.2,1.3c0,0.1,0.3,0.5,1,1.3c0.7,0.8,1.1,1.3,1.2,1.5c-0.6,0.3-1.2,0.6-1.9,0.9c0-0.5-0.1-1.2-0.4-2.2
		c-0.3-0.9-0.4-1.7-0.4-2.2l-2.3,0.8v-9.5l-1-1.3c-0.3,2-1.5,6.7-3.7,14.3c0.4-2.3,1.3-5.8,2.6-10.4c0-0.9-0.1-1.5-0.4-1.8
		c-0.3,0.3-0.6,0.4-0.9,0.4c-0.5,0-1-0.3-1.5-0.8c1.8-1,2.6-2,2.3-3.1c1.2,0.7,3.1,1.8,5.6,3.2c-0.7-1.3-1.7-3-2.9-5.2
		c0.3,0,1.2,0.6,2.6,1.9c0.2-0.2,0.3-0.5,0.5-0.9c0.2-0.4,0.3-0.7,0.5-0.9c-1.9-1.7-4.2-4.1-7-7.3c2.3,1.1,3.9,2.5,4.7,4.2
		c1.1,0,1.7-0.5,1.7-1.4c1.5,0,2.5,0.7,3.2,2c0.3-0.3,0.5-0.8,0.5-1.3c0-0.8-0.6-1.2-1.7-1.2c1.3-1.3,2-2,2.2-2
		c-1.1-0.2-2.6-0.6-4.6-1.3c-0.3,0.3-0.4,0.7-0.4,1.4c0,0.7-0.2,1.2-0.4,1.4c0-0.9,0-1.7-0.1-2.4c0.1-0.9,0.5-1.6,1.3-2.2
		c-0.5-0.6-1-0.9-1.5-0.9c-0.3,0-0.7,0.2-1,0.5c0-1.4-0.2-2.4-0.6-2.8c-0.9,0.4-2.6,1.1-5.1,2c-0.1-0.4-0.1-0.8-0.1-1.2
		c0-0.9,0.2-1.7,0.6-2.6l-0.5-1.2c-0.2-0.5-0.6-0.8-1.3-0.8c-0.4,0-0.8,0.2-1.1,0.7c-0.3,0.5-0.7,0.7-1.1,0.7
		c-0.5,0-1.5-0.5-3.1-1.5c-2-1.3-3-2-3.2-2c-0.4,0.7-0.6,1.4-0.6,2c0.1,0.4,0.3,0.6,0.5,0.6c0.3,0,0.6-0.1,1-0.4l-1.9,2
		c0-1.1-0.2-1.8-0.5-2.2c-0.3,0.5-0.5,1-0.5,1.4c-0.9-0.5-1.5-0.8-1.9-0.8v-6.3h26.9L215.5,73c0.6-0.4,1.4-0.6,2.3-0.6
		c0,0.3,0.1,0.9,0.4,1.7c0.3,0.8,0.4,1.3,0.4,1.7c-2.5,1-4.1,2.1-5,3.3c0.1,0.1,0.2,0.4,0.4,0.9c0,0.2,0.3,0.3,1,0.3l2.6-0.8
		c1.5,0,2.2,2,2.2,6.1c0-1.2-0.7-1.8-2.2-1.8c-0.4,0-2,1.2-4.6,3.5c0.5-0.5,0.8-1.7,0.8-3.5c0.7,0,1.2,0.2,1.7,0.6l1.2-1.2v-2.6
		c-1.1,0-1.7,0.7-1.7,2.2c-1-0.2-1.9-0.7-2.6-1.6c-0.7-0.9-1-1.8-0.7-2.8c-1.6,1.5-2.7,2.3-3.3,2.3c-1,0-1.5-0.5-1.5-1.4v-0.1
		c-0.2,0-0.3,0.4-0.3,1.3c0,2,1.9,5.1,5.6,9.3c3.8,4.3,5.6,7,5.6,8.1c0,0.7-0.2,1.3-0.5,1.8c0.3,0.2,0.9,0.6,1.8,1.2
		c0.1-0.3,0.6-0.9,1.4-1.8c0.6-0.7,0.9-1.4,0.9-2c0-0.3,0-0.7-0.1-1.2c0,0.9,0.7,2,2.2,3.6c0.5-0.3,1.3-1.5,2.4-3.8
		c-1.5-1-3.2-1.5-5-1.5c-0.2-1.8-0.5-4.1-0.9-6.8c0.1-0.1,0.1-0.2,0.1-0.3l2.2,6.1c0-0.9-0.3-1.6-1-2.3c-0.5,0.3-0.8,0.6-0.8,1
		c0-1.9-0.1-2.9-0.3-3.1c0.6,0.4,1.1,0.6,1.5,0.6c0.2-0.2,0.3-0.3,0.3-0.5c0-0.3-0.2-0.7-0.5-1.3c-0.3-0.6-0.5-1-0.5-1.2
		c2.5,1.8,3.7,3.3,3.7,4.5c0,0.8-0.3,1.5-1,2.3c1.2,1.2,2.3,1.8,3.2,1.8c1,0,1.5-0.3,1.5-1c0,0.1-0.1,0.6-0.4,1.5
		c-0.1,0.3,0,0.6,0.3,0.9c0.9-1,1.3-1.9,1.3-2.7c0-0.4-0.3-1-0.8-1.8c-0.5-0.8-0.8-1.3-0.8-1.7V32.3h24.2V133.7z M172.2,42.1
		l-2.6,1.8l-0.6-1l2.6-1.7L172.2,42.1z M172,59.4c-1.4,1.3-2,2.8-2,4.6c0,1,0.6,2.6,1.9,4.6c-0.3-1.5-0.5-2.9-0.5-4.4
		C171.3,62.7,171.5,61,172,59.4z M175.3,41.9c-1-0.5-2.6-1.5-4.6-3.1h2.7C173.8,39.6,174.4,40.6,175.3,41.9z M174.9,57.1
		c0-1.4-0.4-2-1.2-2c-0.3,0.3-0.6,0.7-1.2,1.5c-0.5,0.7-0.9,1.2-1.2,1.5C172.1,57.4,173.2,57.1,174.9,57.1z M174.5,73.5l-0.9-2.7
		l-1,0.4l0.8,2.3H174.5z M175.2,70.7H174v-9.1h1.2V70.7z M179.8,37.2c-0.9-1.9-2-2.8-3.1-2.8c-0.4,0-0.7,0.7-0.9,2
		c0.5-0.2,1-0.3,1.5-0.3C178.3,36.1,179.1,36.5,179.8,37.2z M178.8,63.1l-1.5,7.6h-1l1.4-7.6H178.8z M181.3,116.6
		c-0.5,0-1.2-0.1-2.1-0.3c-0.9-0.2-1.6-0.3-2.1-0.3l1.4,1.5c-0.4,0.4-1.1,0.6-2,0.6c0.9,0.3,2.5,1.1,4.7,2.6v-2.3
		c0-0.4,0-0.9,0.1-1.3V116.6z M180.9,122.9h-1.3V121h1.3V122.9z M184.1,46.1l-4.1-0.8v-1.3l4.1,0.8V46.1z M183.1,54.9h-1l-0.9-1.7
		l1-0.4L183.1,54.9z M189.1,42.4c-1.5-1.3-2.6-2.2-3.2-2.8c-1.1-1.1-1.8-2.1-2.2-3.1v2.7C185.1,40,186.9,41,189.1,42.4z M190,64.7
		c0,0.3-0.8,1.1-2.4,2.4H185c1.6-2.9,2.9-5.7,3.8-8.4c0.5,0.6,0.8,1.6,0.8,2.9C189.6,63.2,189.8,64.2,190,64.7z M195.5,103.1
		c-0.9,1.1-1.9,1.7-2.8,1.7c-0.6,0-1.3-0.3-2-0.8c0.2-0.4,0.3-0.9,0.3-1.4c0-0.7-0.1-1.5-0.4-2.4c0.6,0.6,0.9,1.2,0.9,1.7
		c-1.4,1.4-2,2.2-2,2.6c0.4,0,0.9,0.2,1.3,0.5c-2.8,1.9-4.6,2.8-5.4,2.8c0.3,0,0.9,0.1,1.7,0.2s1.3,0.2,1.7,0.2
		c0.6,0,1.1-0.4,1.5-1.3c0.4-0.9,0.7-1.4,0.9-1.6l1.4,1.4C194.5,105.6,195.5,104.4,195.5,103.1z M189.4,98.7l-3.2-2.4l-0.6,1
		l3.2,2.4L189.4,98.7z M188.1,118.7h-1.3V116h1.3V118.7z M189.5,109.1l-1-0.4l-0.9,1.8l1,0.5L189.5,109.1z M190.9,58.5l-0.9-2
		l-1,0.4l0.9,1.7H190.9z M194.1,99l-4.7-0.8v-1.2l4.7,0.8V99z M194.1,63c-1.6,0-2.7-0.3-3.2-0.8c0,0.4-0.3,1.1-0.9,2
		c-0.7,0-0.1-0.2,1.7-0.5c0.8-0.2,1.2,0.2,1.2,1c0,0.6-0.3,1.2-0.8,1.9c-0.6,0.6-1.1,1-1.6,1c1.7,0,2.7-0.2,3.1-0.6
		c0-0.4,0.1-1.1,0.3-2C194,64.1,194.1,63.4,194.1,63z M194.9,62.6v-1.3l-3.3-0.9v1.3L194.9,62.6z M197.2,69.2
		c-1.1,0.3-2.8,0.8-5,1.5c1-1.4,2.6-3.2,4.7-5.5c-0.2,0.5-0.3,1-0.3,1.5C196.7,67.5,196.8,68.3,197.2,69.2z M194.6,45.9l-0.9,3.3
		h-1.3l0.9-3.3H194.6z M196.7,112.9l-1.7-3.6l-1,0.5l1.7,3.1H196.7z M196.8,101.9c-0.9,0-1.4-0.7-1.4-2.2c0,0.5-0.3,1.1-1,1.7
		c0.3,0,0.7,0.1,1.2,0.3C196.1,101.8,196.5,101.9,196.8,101.9z M197.7,121.5l-0.4-6.3h-1.2l0.4,6.3H197.7z M198.9,67.9l-0.8-4.7
		h-1.3l0.8,4.7H198.9z M200.1,56.7l-0.8,0.6l-1.7-1.7l0.6-0.8L200.1,56.7z M200.9,93.7l-0.6-1l-2.6,1.7l0.6,1L200.9,93.7z
		 M204.2,105c-0.6-1.6-1.4-2.4-2.4-2.4c0.6,0.5,0.9,0.9,0.9,1.2s-0.7,0.5-2.2,0.8c-0.9-1.8-1.8-2.7-2.6-2.7c0.5,0.9,1.3,2.2,2.3,4.1
		C201.6,105.1,202.9,104.8,204.2,105z M202.4,98.6h-1.3l-0.8-3.3h1.3L202.4,98.6z M202.9,70.8l-1.9-1l-0.4,1l1.9,1L202.9,70.8z
		 M203.1,75h-1.2v-1.9h1.2V75z M203.1,120.7h-1.2v-3.3h1.2V120.7z M204.9,72.5v-1.2h-1.9v1.2H204.9z M210.1,73l-0.4-1l-1.8,0.9v1
		L210.1,73z M227.1,70.4c-1,0-1.5-0.6-1.5-1.7c-1.5,0.1-3.5-0.6-6-2.1c-2.5-1.5-3.7-2.2-3.6-2.2h-3.1c0.3,1.2,1.5,2.8,3.7,4.8
		c2.2,2,3.9,3,5.1,3C223.1,72.2,224.9,71.6,227.1,70.4z M216,90.8h-1.2l-0.8-2.4l1-0.4L216,90.8z M218.2,83.6h-1.3v-1.9h1.3V83.6z
		 M219.6,105l-0.8-4h-1.3l0.8,4H219.6z M221.5,118.3c-0.8,0.3-1.2,0.7-1.2,1.2c0.1-0.3-0.3-1-1.2-2.1c-0.9-1.1-1.3-1.8-1.3-2.1
		c0.6,0,1.2,0.3,1.8,1L221.5,118.3z M221.4,56.1l-3.3-0.8V54l3.3,0.9V56.1z M223.6,108.2c-0.9,0.9-2.3,1.8-4,2.7
		c-0.5-0.9-0.8-1.6-0.8-2c0.4,0.3,0.9,0.4,1.4,0.4C221.2,109.2,222.3,108.9,223.6,108.2z M226.4,65.8c-2.6-0.9-4.7-2.1-6.3-3.8v-2.6
		h2.6l3.7,3.7V65.8z M225.2,107.9h-1.2v-2.7h1.2V107.9z M228.8,106l-1.3,3.5l-1-0.4l1.3-3.1H228.8z M229.6,96.7l-0.4,2.7h-1.3
		l0.4-2.7H229.6z M231,99.2l-1.7,2.6l-1-0.8l1.7-2.4L231,99.2z"/>
	<path id="XMLID_176_" class="st0" d="M253,27c-0.7-0.1-1.6-0.4-2.8-0.9c1.6,0,2.4-0.4,2.4-1.3c0-0.6,0.1,0.4,0.4,3.1
		c0.2,1.8,0.1,3-0.1,3.6c-0.4,0-1-0.3-1.6-0.8c-0.6-0.5-1-0.9-1-1.3c0.6,0.4,1.1,0.6,1.5,0.6C252,29.6,252.4,28.6,253,27z
		 M334.7,133.2h-37.8c-1.2,1.4-2.9,2.6-5.1,3.7c-0.4-0.3-1.2-1.5-2.3-3.7c0.4,0,0.4,0-0.1,0c-0.5,0.1-1.2,0.1-2.2,0.1h-2.4l-1.2,1
		c0.4,0.5,1.4,0.7,2.8,0.6c-0.3,0.3-0.4,0.6-0.4,1c0,0.6,0.4,1.3,1.2,2c-0.3,0-0.9,0.1-1.7,0.4c-0.8,0.3-1.4,0.4-1.7,0.4
		c0-0.8,0.4-1.6,1.3-2.4c-0.4-0.4-0.9-0.6-1.3-0.6c-0.3,0-0.5,0.1-0.6,0.3c0-0.2-0.1-0.6-0.4-1.2c-0.2-0.5-0.1-0.9,0.3-1.3
		c-0.9-0.3-3.1-0.4-6.8-0.4h-4.1c-1.8,0.3-2.8,0.9-2.9,2c-1.5-1.9-7.2-2.8-17.2-2.8c-0.9,0-1.4,0.4-1.4,1.2c0-0.8,0.8-1.5,2.4-2.3
		c-0.3-0.3-1.2-0.4-2.7-0.4v-4.1c0.5,0.3,1.2,0.7,2.2,1.4c0.3-3.8,0.5-6.6,0.5-8.6c0-4.9-0.9-8.8-2.8-11.9c0.3,0,0.6,0.3,1,1l0.8,1
		c0.7-0.6,1-1.6,1-3.1c-0.3-0.8-0.8-1.2-1.4-1.3c-0.6-0.1-0.9-0.4-0.9-0.9c0-0.5,0-0.8-0.1-0.9c0.3,0.3,0.9,0.5,1.8,0.5
		c0.5-5.5,0.8-9.2,0.8-11.3c0-4.9-0.7-7.8-2.2-9V60.1c0.3,0.2,0.8,0.6,1.5,1.4c0-0.3,0.1-0.7,0.3-1c0.2-0.3,0.2-0.6,0-0.9
		c-0.1-0.3-0.5-0.7-1.2-1.2c0.2-0.9,1-2,2.6-3.6c-0.1-0.6,0-1.4,0.4-2.4c0.2-1.1-0.3-1.9-1.4-2.4V32.4h15.7c0-3.4,0.8-5.1,2.3-5.1
		c0.4,0,0.8,0.1,1.1,0.4c0.3,0.3,0.6,0.4,1,0.4c0.8,0,1.4-0.3,2-0.9c0.9-0.8,1.5-1.2,1.8-1.3c0,0.7-0.4,1.7-1.2,2.9
		c-1,1.7-1.6,2.7-1.7,2.9c2.7,0.3,10.7,0.5,23.9,0.5c0.4,0,1,0.1,1.6,0.4c0.6,0.3,1,0.4,1.2,0.4c0.3,0,0.5,0,0.8-0.1l1.4,1.4
		c0.3-0.4,0.5-1.2,0.5-2.2c0.9,0.1,2.3,0.4,4.1,1c-0.9,0.4-1.5,1.5-1.7,3.1c-0.2,1.6-0.6,2.6-1.2,2.8V41c0.2,0.4,0.5,0.6,0.9,0.6
		c0-0.3,0.6-1,1.9-2.2c-0.3,0.7-0.6,2.2-0.8,4.5c-0.1,2-0.8,3.5-2,4.5c0,0.8,0.2,1.3,0.5,1.7c0.6-0.4,1.2-0.6,1.7-0.6v3.5h-4.7
		l-1.3-1.4c-1.7,0.9-3.6,1.4-5.6,1.4c-0.8,0-2.6-0.7-5.5-2.2c0,0.2,0.2,0.7,0.6,1.5c0.4,0.9,0.6,1.5,0.6,2c-0.2-0.9-1-1.4-2.6-1.4
		c-1.2,0-2,0.3-2.6,0.8l-1.4-1.5c-0.9,0.4-1.7,0.6-2.4,0.6c-0.9,0-1.7-0.2-2.4-0.6c-0.4,0.4-0.6,1.4-0.6,2.9
		c-0.1-0.1-0.5-0.3-1.2-0.8c-0.7-0.4-1.1-0.8-1.1-1c0,1.1,0.6,2.2,1.8,3.3c0.4,2.4,0.6,6.9,0.6,13.6c0.6,0.3,1.2,0.5,1.9,0.5
		c0.9,0,1.7-0.3,2.7-0.8c18.3,0.5,32.2,0.8,41.7,0.8l3.1,0.9c0.3,2.4,0.5,5.2,0.5,8.3c0,3.2-0.2,6.7-0.5,10.6h-49.4v19.1
		c0,0.5,0,0.8-0.1,0.8c-0.1,0-0.2-0.1-0.4-0.2c-0.2-0.1-0.3-0.2-0.5-0.2c-0.1,0-0.2,0-0.3,0.1c0.7,0.3,1.6,0.7,2.8,1.4
		c-0.6,0.6-0.9,1.4-0.9,2.4c-0.3,0-0.8-0.1-1.5-0.3c-0.6-0.2-1.1-0.3-1.5-0.3c-0.3,0.3-0.5,0.7-0.5,1c0,0.4,0.2,0.9,0.6,1.3
		c-0.1,0.9,0.2,1.6,0.9,2c0.7-0.5,1-1.5,1-2.9l1,4.7c-0.4,0.8-1.4,1.7-2.8,2.8c1.2,1.2,2,1.8,2.3,1.8c0.3-0.3,0.4-0.7,0.3-1.4
		c-0.1-0.5-0.2-1-0.3-1.4c0.7,0.4,1.7,1.1,3.2,2c0.4,0,1.2-0.6,2.3-1.7c-0.4-0.3-0.9-0.5-1.3-0.5c0-0.3,0.2-0.7,0.7-1.3
		c0.5-0.6,0.7-1.1,0.7-1.3c-0.3,0,0.5,0.9,2.3,2.7c0.2-0.4,0.3-0.9,0.3-1.4c0-0.6-0.1-1.3-0.4-2c0.4,0.5,0.9,0.8,1.4,0.8
		c-0.1-0.7,0.3-2.4,1.3-5.2c-0.9-0.3-2.1-0.9-3.6-1.7l3.5-1c0.3,1.5,0.6,2.4,0.8,2.9c0.4,1.3,0.9,2,1.5,2.3
		c-1.5,1.5-2.2,2.9-2.2,4.4c0,0.9,0.3,1.8,1,2.6c0.9-1.3,1.6-3.2,1.9-5.6c0.3-2,0.2-3.8-0.1-5.6c0.8-0.5,1.7-0.8,2.8-0.8h0.9
		c0.4,0.1,0.8,0.1,1,0.1c1.6,0,2.7-0.8,3.3-2.3c0.4,0,1,0.7,1.7,2h25.1c0.9,0,1.3-0.2,1.2-0.6c-0.1-0.4-0.1-0.7-0.1-0.8
		c1,0.8,3,1.3,6,1.5V133.2z M251.6,156.4c-0.5-0.4-1-0.6-1.4-0.6c0.1-0.2,0.3-0.9,0.6-2.1c0.3-1.2,0.5-1.9,0.7-1.9
		c0.3,0.9,0.4,1.9,0.4,2.8c0,1.6-0.5,3-1.4,4.2C250.4,158,250.8,157.2,251.6,156.4z M255.3,15.3v-3.1c-0.4-0.4-1.3-0.6-2.7-0.6h-2.3
		V7.5c2.1,0.8,4.1,1.9,5.9,3.5c0.4,0,1-0.2,1.8-0.5C257.4,11.5,256.5,13.1,255.3,15.3z M254.9,24.5c-0.3-0.8-1-2-2.3-3.6l-1.5,1.4
		c0-0.4-0.1-1.1-0.4-2c-0.3-0.9-0.4-1.7-0.4-2.2c2.7,2,4.3,2.9,4.6,2.9V24.5z M251.8,44.2V41h-1.3v3.2H251.8z M254.3,5.5h-1.9V4.3
		h1.9V5.5z M257.5,55.3l-1.7-2.6l-0.9,0.6l1.7,2.6L257.5,55.3z M257.5,30.8h-1l-0.9-2.4l1-0.4L257.5,30.8z M260.7,48.9v-1.2
		l-4.5-1.5l-0.4,1L260.7,48.9z M268,27.3c0,1.6-0.8,2.8-2.4,3.6c-0.3,0-0.4-0.2-0.6-0.6c-0.1-0.4-0.2-0.7-0.3-0.8h-1.9
		c-0.5,0.5-0.8,0.9-0.8,1.3c0,0.3,0.1,0.5,0.3,0.6c-0.9-0.9-1.6-1.3-2.1-1.3c-0.6,0-0.9-1.4-1.1-4.2c-0.8,0.8-1.8,1.2-3.1,1.2
		c0.9-0.7,2.4-2,4.4-4.1c-0.3,0.2-0.4,1.2-0.4,2.9c1.2-0.5,1.8-1.9,1.8-4.2l1.5,1.4c0.3-0.4,0.5-0.9,0.5-1.4c0.3,0,0.8,0.2,1.3,0.5
		c0.6,0.3,0.8,0.7,0.8,1c0,0.1,0,0.2-0.1,0.3c0.1,0.1,0.5,0.7,1.3,1.9C267.7,26.2,268,26.9,268,27.3z M266.3,47.1
		c0-0.3-0.3-0.8-0.8-1.7c-0.5-0.9-0.8-1.5-0.8-1.7c-0.2,0.7-0.9,1.9-2,3.7c-1.2,1.8-2,2.7-2.6,2.7c-0.4,0-1.1-0.1-2-0.3
		c-0.5-0.2-0.8-0.1-0.8,0.1c3.1,0,4.6,0.6,4.6,1.7c0,0.3-0.1,0.8-0.2,1.4c-0.1,0.6-0.2,1.1-0.2,1.4c0,1,0.4,1.9,1.2,2.7
		c0-1.1,0.6-1.7,1.7-1.7c-1-0.5-1.5-1.4-1.5-2.7c0-0.8,0.7-2.9,2-6.3C265.4,46.5,265.9,46.7,266.3,47.1z M263.2,142.4H262v-1.9h1.3
		V142.4z M266.8,54.7c0-0.3-0.6-1-1.7-2.2c1.1,0,1.7-0.2,1.7-0.6V54.7z M275.7,113.6c-0.5-0.2-1.3-0.7-2.3-1.6c-1-0.9-2-1.3-3.1-1.3
		c-0.4,0-1,0-1.7,0.1c1,0.9,1.5,1.6,1.5,2c-1.6,0.9-2.8,1.7-3.6,2.4c1,0.3,2.2,1,3.6,1.9l-2.4,0.5c-1-1-1.5-1.7-1.5-2.2
		c-0.1,1.2,0.5,2.4,1.7,3.7c1.2,1.3,2.5,1.9,3.6,1.9c0.9,0,1.7-1.1,2.7-3.2C275,116.2,275.5,114.8,275.7,113.6z M270.7,49.6v-1.2
		h-2.6v1.2H270.7z M272.8,32.2v-3.3c-0.4,0-1.1-0.3-1.9-0.8c0,1.1-0.5,2.7-1.5,4.7c0.4,0,1-0.1,1.7-0.3
		C271.8,32.3,272.4,32.2,272.8,32.2z M275.7,162l-4.7-0.6V160l4.7,0.8V162z M277.8,141.3c-0.9-0.8-1.3-1.5-1.3-2.3
		c0-0.7,0.3-1.4,1-2.2c0.3,0.3,0.3,0.5,0.3,0.8c-0.3,0.5-0.4,0.9-0.4,1.3c0.3-0.7,0.5-1.3,0.5-1.9c0-0.9-0.3-1.6-1-2.3
		c-1.5,0.7-2.6,1.2-3.1,1.5c-1,0.7-1.8,1.5-2.3,2.6C273.2,139.2,275.3,140.1,277.8,141.3z M277.1,50.3h-4.7v-1.3h4.7V50.3z
		 M289.2,157.3c-0.5-0.3-1.2-0.3-2.2-0.1c-0.9,0.2-1.8,0.3-2.4,0.3c-0.4,0-0.7-0.2-0.7-0.7c0-0.5-0.3-0.7-0.7-0.7
		c-0.4,0-0.8-0.2-1.2-0.7c-0.4-0.5-0.8-0.7-1.2-0.7c-0.3,0-0.8,0.1-1.3,0.3c-0.5,0.2-0.9,0.3-1.3,0.3c-0.9,0-1.6-0.5-2-1.4
		c-0.1,0.1-0.3,0.5-0.6,1.2c-0.3,0.7-0.6,1-0.9,1c-0.7-0.6-1.2-0.9-1.7-0.9c0.4-0.9,2-2.8,4.7-5.5c0,1,0.2,1.7,0.5,2
		c0.6-0.8,1.6-1.7,3-2.8c1.4-1.1,2.3-1.8,2.8-2.2l3.1,4.1c1.5,2,2.2,3.3,2.2,4.1V157.3z M277.2,110.8c-0.3,0-0.9-0.1-1.8-0.4
		c-0.9-0.3-1.5-0.4-1.8-0.4c0.3,0.7,0.9,1.6,1.8,2.7L277.2,110.8z M276.7,123.9h-1l-0.9-2.4l1-0.4L276.7,123.9z M283.7,154.1
		l-0.8,0.6l-1.7-1.8l0.8-0.6L283.7,154.1z M288.5,114.1c0,1.5-0.7,2.2-2,2.2c-0.5,0-0.8,0.1-0.8,0.4c0,0.2,0.1,0.4,0.4,0.6l-1.7-1.4
		C285.2,115.5,286.6,114.9,288.5,114.1z M286.7,121.5l-0.9,1.9l-1-0.5l0.9-1.8L286.7,121.5z M287.4,13h-1.2l-0.9-3.3h1.3L287.4,13z
		 M288.5,51.7h-2.6v-1.3h2.6V51.7z M288.8,123.2h-1.3v-1.9h1.3V123.2z M292.8,142.4l-1.9,1.5c0-0.3-0.4-1-1.2-2.1
		c-0.8-1.2-1.2-2-1.2-2.5s0.3-1.1,0.8-1.7h2.6c0.6-0.3,0.9,0.2,0.9,1.3V142.4z M290.2,130.3H289v-1.9h1.3V130.3z M290.9,126.8h-1.2
		v-1.9h1.2V126.8z M294.5,62.5l-1-0.4l-0.9,1.8l1,0.5L294.5,62.5z M296.9,54.4c-0.4,0.9-0.6,1.5-0.6,1.9c-1.1-0.3-1.8-0.6-1.9-0.6
		c-0.6-0.3-1-0.8-1.2-1.4c0,0.5,0.6,0.8,1.8,0.8C295.8,55.1,296.5,54.9,296.9,54.4z M299.8,99.7c-0.1-0.3-0.1-2.8-0.1-7.7
		c-1.5,0.6-3.6,1.6-6.1,3.1c1.2,2.5,1.7,4,1.5,4.6C295.5,99.6,297.1,99.6,299.8,99.7z M300.5,5.5h-5.4V4.3h5.4V5.5z M296.6,63.5
		v-2.7h-1.3v2.7H296.6z M300.1,146l-3.8,3.8l-0.8-0.8l3.8-3.8L300.1,146z M304.8,5.5h-2.7V4.3h2.7V5.5z M304.8,42.5v-1.3h-1.9v1.3
		H304.8z M304.7,145.3c-0.8-0.5-1.4-0.8-1.8-0.8v-6.8c0.9-1,2.2-2.3,4-3.7c-0.1,1.1-0.1,2.2-0.1,3.3c0,0.6,0.7,0.9,2,0.9
		c0.5,0,1.4,0.3,2.6,0.9C308.1,140.8,305.9,142.8,304.7,145.3z M311.9,5.5H310V4.3h1.9V5.5z M333.3,52.8c-0.9-0.1-5.5-0.1-14.1-0.1
		c0.3-0.3,0.5-0.7,0.5-1c0-0.3-0.2-0.7-0.5-1c0.2-0.2,0-0.6-0.4-1.3l-2.4,2l1.4-1.5c-0.6,0.1-0.9,0.2-1,0.4
		c-0.3,0.3-0.6,1.2-0.8,2.7c-0.1-0.5-0.1-0.9-0.1-1.3c0-0.5,0.3-1.6,0.9-3.2c0.6-1.6,0.9-2.8,1-3.5c-1.1,0.2-2.1,0-3.1-0.6
		c-0.1,1.2-0.4,2.9-0.9,5c0-0.4-0.6-1.2-1.8-2.4c0.9-1.9,2.5-3.6,5-5.2c-1,0.9-1.5,1.7-1.5,2.2c0.3,0,1.1-0.6,2.4-1.7
		c1.2-1.1,1.9-1.7,2.1-1.8l-0.5-4.5l-1.3,1.3h-2.6c0.9-2,3.5-3.3,7.7-3.7c4.8-0.5,7.3-0.9,7.6-1h2.4V52.8z M314.8,35h-2.7l0.9-1.9
		C314.2,34.2,314.8,34.8,314.8,35z M315.2,39.7c-0.6,0.7-1.6,1-2.9,1v-2.8c0.3,1,0.9,1.7,1.5,2C314.4,40.2,314.9,40.1,315.2,39.7z
		 M326.2,51.2c-2.3-2.3-3.5-4-3.5-5.1c0-0.5,0.3-1,1-1.5c0.7-0.5,1.3-0.7,1.8-0.7c-0.5,0-1.2-0.3-2-0.9c0,0.4-0.4,0.9-1.2,1.3
		l-1.2-1c0.5-0.4,0.7-1,0.6-1.7c-1.2,0.6-2.6,1.4-4.1,2.4c0.4,0.4,0.8,1,1.2,1.7c0-1,0.2-1.7,0.5-2c0.9,0.9,2,2.4,3.3,4.4
		c-0.3,0-0.7,0.2-1.5,0.6c-0.7,0.4-1.1,0.5-1.2,0.4c0,0.3,0.3,0.4,0.9,0.5c0.6,0.2,1.1,0.1,1.4-0.3c0.2,0.2,0.1,0.6-0.1,1.4
		c-0.1,0.5,0.2,0.8,0.8,0.8c0.3,0,0.9,0,1.6-0.1C325.3,51.3,325.9,51.2,326.2,51.2z M327.9,49.4l-1.8-1.7l-0.8,0.6l1.8,1.8
		L327.9,49.4z M327.9,42.5l-1-0.4l-0.9,1.9l1,0.4L327.9,42.5z M329.3,45.7l-0.9-2.2l-0.9,0.4l0.8,1.8H329.3z M330.1,159.5h-1.3v-1.9
		h1.3V159.5z"/>
	<path id="XMLID_227_" class="st0" d="M331.8,102.7V89.1h1.3v13.6H331.8z M414.4,52c0.3,1-0.3,2-1.8,2.8c-0.5-0.5-0.8-1.1-0.8-1.8
		c0,1.2-0.4,2-1.2,2.6c-1.2-1-1.8-2.1-1.8-3.3c0-0.8,0.3-1.6,0.8-2.6c1.3,1.3,2,2,2.3,2.2c1.5-2.5,3-3.5,4.5-3.1
		c-0.5-0.9-0.8-1.5-0.9-1.8c-0.2-0.9-1.1-1.9-2.7-3c-1.6-1.1-2.5-1.8-2.7-2.1c-3.8-6.8-11.4-10.5-22.8-11
		c-6.3-0.3-10.7-0.4-13.1-0.4c0.3,0,0.4,0.2,0.4,0.5c0,0.3-0.1,0.6-0.3,1.2c0.3,0,0.9-0.2,1.7-0.7c0.8-0.5,1.4-0.7,1.8-0.7
		c0.8,0,1.5,0.4,2.2,1.2c-0.9,0.9-1.8,1.4-2.6,1.4c0.5,0,1.3-0.1,2.3-0.2c1-0.1,1.8-0.2,2.3-0.2c0.3-0.3,0.5-0.4,0.8-0.5
		c0.2,0,0.3,0.3,0.3,0.8c-0.3,0.1-0.9,0.6-1.8,1.4c-0.9,0.9-1.7,1.3-2.3,1.3c-1.6,0-3.4-0.6-5.4-1.8c-2-1.2-3.1-1.8-3.3-1.8
		c-1.1,0-1.8,0.1-2,0.3c-0.5,0.6-1.1,1.2-1.7,1.9c-0.4-0.4-0.6-0.9-0.5-1.4c-1.7-0.6-5-0.9-9.9-0.8c-0.3,0.8-0.6,2.6-0.9,5.5
		c-0.3,2.2-0.9,4-1.8,5.4c-0.3-0.7-0.4-1.4-0.4-2c0-1.5,0.5-3.1,1.4-4.9c-2.2-2-4.1-3.5-5.6-4.6c1.4,0.9,2.6,1.5,3.6,1.9
		c-1,3.3-1.5,5.1-1.4,5.4c-0.5,0-1-0.3-1.5-0.8c0.3,0.9,0.5,1.6,0.5,2.3c0,0.4-0.1,0.9-0.3,1.3c-0.4-0.4-0.9-1.1-1.5-1.9
		c-0.3-0.6-0.6-0.9-0.9-0.9c0,0.9-0.5,1.4-1.4,1.4c0,0.3,0.4,0.9,1.3,1.8c-1.8,1.7-2.8,2.6-3.1,2.6c-1.1-1.3-1.9-2.3-2.4-2.9
		c0.1,0.3,0.2,0.8,0.3,1.4c0.1,0.7,0,1.2-0.3,1.5c-0.4,0-1.2-0.6-2.4-1.8c0.9-0.4,1.3-1.5,1.3-3.3c-3,0.5-4.4,0.8-4.1,0.8V46
		c1.2-0.6,2.6,0,4.2,1.9c-0.2,0.1-0.3,0.1-0.5,0.1c-0.4-0.8-0.9-1.2-1.4-1.2h-2.3v2.8c2.6-0.2,4.2,0,5,0.4c-1.1,0.6-2.8,0.8-5.1,0.5
		v18.7l6.9-0.6c0.4,0,1-0.1,1.7-0.4c0.7-0.3,1.1-0.4,1.2-0.4c0.3,0.4,0.5,1,0.5,1.7c-2.6,1-4.6,1.5-5.8,1.5c0.1,1.1,0.1,2.1,0.1,2.9
		c0,1.6-0.2,3-0.5,4.1c-0.6-2.2-0.8-4.9-0.5-7.9h-7.8v17.9c1.7,0.7,2.6,4,2.6,10c0,1.3-0.1,3.2-0.2,5.6c-0.1,2.5-0.2,4.4-0.2,5.6
		c0.4,0,0.9,0.2,1.4,0.6c-1.7,5.5-2.4,12.6-2.2,21.1h1.2c0.6,0.1,1.1,0.1,1.5,0.1h2.7c0.9,0,1.4-1.1,1.4-3.2c0-1.3-0.2-3.2-0.5-5.8
		c-0.3-2.6-0.5-4.5-0.5-5.8c0-1.1,0.1-2,0.4-2.6c2,8.9,3.3,14.9,4.1,18h15.4V98.5h29.2c2.2,0,4.3-0.6,6.3-1.8
		c-0.4-0.4-0.6-0.8-0.6-1.2c0-0.3,0.1-0.5,0.3-0.6c0.2,0.1,0.3,0.6,0.4,1.4c0,0.5,0.4,0.8,1.2,0.8c1,0,3.4-1,7.2-3.1
		c3.8-2.1,5.8-3.6,6-4.4c0.6-3.8,0.9-6.6,1-8.4c1,1.1,1.5,2.3,1.5,3.7c0,0.9-0.2,1.8-0.6,2.8c3.8-4.7,6.1-10.2,6.9-16.4
		c0.3-2.5,0.5-8.9,0.4-19.2H414.4z M340,132.5h-7.8v1.2h7.8V132.5z M336.4,88.5h2.3c0.7-2,1-4.6,1-7.8c0,0.2,0.1,0.3,0.4,0.3
		c0.4-0.1,0.7-0.1,0.9-0.1c0.3,0.1,0.5,0.4,0.5,0.9V89C338.7,89,337,88.8,336.4,88.5z M337.9,44.4L337,42l1-0.4l0.9,2.8H337.9z
		 M338.9,32.4h-1.3v2.7h1.3V32.4z M341.4,131.2l-0.9,1.8l1,0.5l1-1.9L341.4,131.2z M346.1,48.2c-0.2,0.9-0.3,1.7-0.3,2.2h-3.3
		c-0.6-0.5-0.8-1.9-0.5-4.2c0,0.9,0.6,1.4,1.8,1.4c0.9,0,1.7-0.5,2.7-1.4C346.4,46.5,346.3,47.2,346.1,48.2z M343.5,74.4v-2h1.3v2
		H343.5z M343.5,80.2v-1.9h1.3v1.9H343.5z M343.5,86v-2h1.3v2H343.5z M358.8,132.5h-15v1.2h15V132.5z M346.6,105.6l-2.3-5.4l1-0.4
		l2.3,5.8H346.6z M346.8,89.4c-0.2,0.8-0.3,1.4-0.3,1.8c-0.8-0.5-1.4-0.8-1.8-0.8c0-0.2,0.4-0.6,1.2-1.4c0.8-0.8,1.2-1.2,1.3-1.4
		C347.1,88,347,88.6,346.8,89.4z M346.2,91.3h-1.3v8.6h1.3V91.3z M346.9,111h-1.3v1.9h1.3V111z M347.6,106.7h-1.2v2.7h1.2V106.7z
		 M347.6,114h-1.2v1.9h1.2V114z M346.7,36.3l1.8,1.4c-0.3-0.3-0.4-0.5-0.5-0.6c0-0.3,0.3-0.4,0.9-0.4c1.4,0,2-0.7,2-2.2
		C348.9,35.3,347.5,35.9,346.7,36.3z M346.8,50.7v-1.3h1.9v1.3H346.8z M348.1,43.9l-1-0.4l1-1.9l1,0.4L348.1,43.9z M347.1,53.3v-1.9
		h1.3v1.9H347.1z M349,76.2v-1.3h1.9v1.3H349z M350.3,43.9l-1-0.4l1-1.9l1,0.4L350.3,43.9z M350.8,82.3v-1.9h1.3v1.9H350.8z
		 M352.2,47.4v-1.9h1.3v1.9H352.2z M355.5,50.7v-1.3h4.1v1.3H355.5z M388.3,74.2c-2.3,2.6-5.2,3.9-8.6,3.9h-20.6V50.6
		c2.4,0.4,4.7,0.6,6.9,0.6c2,0,4.1-0.2,6.1-0.5c-0.4-0.4-1-0.6-1.8-0.6c0.2,0,0.6-0.3,1.4-0.9c0.8-0.6,1.3-0.9,1.5-0.9
		c1,0.8,2.6,1.3,4.6,1.5l5.1,0.3c-3.7-0.2-6.6,0-8.7,0.6c11.6,0.3,17.4,5,17.4,14.3C391.7,68.6,390.6,71.6,388.3,74.2z M368.6,59.9
		l-1-0.4l0.9-1.9l1,0.4L368.6,59.9z M369.6,56.7l-0.4,1l1.8,1l0.5-1L369.6,56.7z M370.1,106.7l-0.8,2.7h5.5c0.5-0.5,0.8-1.4,0.8-2.7
		H370.1z M371,43.9c-0.7,0-1-0.8-0.9-2.3c0.1-2,0.1-3.1,0-3.5c0.7,0,1.2,0.2,1.7,0.6c0.4-0.4,0.6-1.4,0.6-2.9c1.6,1.1,3,2,4.1,2.6
		C375,42.1,373.1,43.9,371,43.9z M372.9,68.9v-1.2h2v1.2H372.9z M373.1,46.8v-2.4c0.2,0.9,0.8,1.3,1.9,1.3
		C374.5,46.4,373.9,46.8,373.1,46.8z M383.2,70c-0.2,0.9-0.3,1.7-0.3,2.2c-3.1-1-5.5-2.4-7.2-4.1c0.9,0,1.8,0.4,2.7,1.3
		c0.4-0.3,1.3-0.5,2.6-0.7c1.3-0.2,2.1-0.4,2.6-0.7C383.6,68.4,383.4,69.1,383.2,70z M375.9,45v-1.3h1.9V45H375.9z M391.2,90.8
		l-2.6-1.8l0.6-0.9l2.7,1.7L391.2,90.8z M393.2,94.8l-0.9-1.8l1-0.4l0.9,2.2H393.2z M410.2,72.9h-1.3l0.8-4.9h1.3L410.2,72.9z
		 M409.5,80.3v-6.5c0.9,1.6,1.7,2.8,2.3,3.6c0.9-1.4,1.4-2,1.7-2v3.5C412.1,78.6,410.7,79.1,409.5,80.3z M413.2,64.3
		c-0.5,0.5-0.8,1.1-0.8,1.8c0-0.3-0.2-0.7-0.4-1.2c-0.3-0.6-0.4-1-0.4-1.2h2.6v2.8C413.9,65.4,413.6,64.6,413.2,64.3z M417.1,56.4
		c-0.6,0.3-1.2,0.5-1.9,0.5c-0.7,0-1.4-0.2-2.2-0.5l0.8,3.5h4.1L417.1,56.4z M418.2,116.1H417v1.9h1.3V116.1z M421.6,115.2l-0.9,1.8
		l1,0.5l0.9-1.9L421.6,115.2z M442.7,115.2l-0.9,1.8l1,0.5l0.9-1.9L442.7,115.2z"/>
	<path id="XMLID_273_" class="st0" d="M412.6,31.3h-1.9V30h1.9V31.3z M415.7-2c-0.7-0.1-1.7-0.4-2.9-0.9c1.7,0,2.6-0.5,2.6-1.4
		c0-0.6,0.1,0.5,0.4,3.2c0.2,1.9,0.1,3.1-0.1,3.7c-0.4,0-1-0.3-1.6-0.8c-0.6-0.5-1-0.9-1-1.3c0.5,0.4,1,0.6,1.4,0.6
		C414.6,0.6,415-0.5,415.7-2z M420.7,81.3c-1.3,1.4-2.6,2-4,2c-0.5,0-1,0.2-1.5,0.6c-0.5-0.9-1.3-2-2.4-3.3c0.3,0,0.7,0.3,1,0.8
		l0.8,1.2l1.9-1.9c-0.9-1-2-2.5-3.6-4.5c1.1,0.5,2.8,1.3,5.1,2.4C418.8,80.4,419.6,81.3,420.7,81.3z M420.7-18.9
		c-0.6,1.1-1.5,2.7-2.7,4.9v-3.2c-0.3-0.3-1.3-0.5-2.8-0.5h-2.3V-22c2.1,0.8,4.1,2,6,3.6c0.6,0,1.1-0.1,1.4-0.3L420.7-18.9z
		 M418.6,104.1l-5.6,2.8c0-0.5,0.9-1.2,2.7-2.2c-0.3-0.3-1.2-0.4-2.8-0.4v-5C413.8,100.3,415.7,101.9,418.6,104.1z M414.3,130.2
		c-0.5-0.3-1-0.5-1.4-0.5l0.5-2.3c0.3-1.1,0.6-1.7,0.6-1.8c0.3,1,0.4,2,0.4,2.8c0,1.7-0.5,3.2-1.4,4.4
		C413,131.9,413.4,131.1,414.3,130.2z M417.7-4.7c-0.3-0.7-1.2-1.9-2.4-3.6l-1.7,1.4c0-0.4-0.1-1.1-0.3-2c-0.2-0.9-0.3-1.7-0.3-2.2
		c2.6,2,4.1,2.9,4.7,2.9V-4.7z M414.4,15.6h-1.2v-3.5h1.2V15.6z M478.9,67.4c-0.3,0.2-2.2,0.9-5.5,2.3c-2.9,1.2-4.7,2.3-5.4,3.2
		c-0.1,0.1-0.1,0.2-0.1,0.3c0,0.3,0.2,0.5,0.5,0.8c0.9-0.9,1.7-1.4,2.3-1.4c0.3,0.5,0.4,1,0.4,1.5c0,0.9-0.3,2-0.9,3.1
		c1.1,0.6,2.4,1.7,4,3.3l2.7-3.6c-0.8,2.2-2.3,5.5-4.5,9.7c0.9,0.3,2.1,0.9,3.5,1.8c-0.2-0.2-0.3-0.3-0.5-0.3c-0.6,0-1.6,0.7-2.9,2
		l-0.1,0.1c-0.3,0.3,0.1,0.4,1.2,0.4c1,0,1.5-0.4,1.5-1.2c0,0.3-0.3,0.7-0.8,1.5c-0.5,0.7-0.8,1.2-0.8,1.5c0-0.8-0.4-1.2-1.3-1.2
		c-0.8,0.9-1.2,1.8-1.2,2.7c0,0.9,0.5,1.8,1.5,2.6l-1.3-0.9c-0.4,0.5-0.6,1-0.6,1.5c0.3-1.7,0-2.7-0.8-2.9h-2.6
		c-0.6,0-0.9,0.2-0.9,0.5c0,0.1,0.1,0.3,0.3,0.8c0.2,0.4,0.3,0.7,0.3,0.9c-0.5-0.3-1.3-0.7-2.3-1.4l-1.2,1.2v1.9
		c0.5,0.4,1.7,0.6,3.7,0.6c-0.2,0.3-0.3,0.5-0.3,0.8c0,0.2,0.2,0.6,0.5,1.2c0.3,0.6,0.5,1.1,0.5,1.5c0,0.7-0.4,2-1.2,3.8
		c-0.8,1.9-1.2,3.3-1.2,4.2c0.7-0.7,1-1.4,1-2c0.3,0,0.9,0.4,1.8,1.3c0.7-1.4,1.5-2,2.3-2c0,0.1,0.1,1,0.3,2.8c0,1.5,0.3,2.2,1,2.2
		c0.3,0,0.9,0,1.7,0.1c0.8,0.1,1.3,0.1,1.7,0.1c-3.8,1.5-5.6,3.2-5.6,5.1c0,0.3,0.2,0.6,0.5,0.9c-1.3,0-2.1-0.2-2.4-0.5v3.1
		c-0.2,1.1-0.9,2-2,2.6c1.5,0.6,2.3,1.2,2.3,1.7c0,3.2-0.5,6.1-1.5,8.7c-0.6-0.9-1.4-2.4-2.4-4.4c-0.1,0.2-0.1,0.4-0.1,0.8
		c0,0.8,0.4,1.9,1.2,3.5h-5c-0.3-2.3-1-3.5-1.9-3.5c-1.4,0-2.2,0.3-2.6,0.8c0.1,0.1,0.2,0.4,0.4,1c0,0.3,0.4,0.4,1.2,0.4h1.4
		c0.2,0.2,0.4,0.6,0.6,1.3h-10.8c0-0.9-0.5-2.1-1.5-3.5c-1-1.4-2-2.1-2.9-2.1c-0.3,0-0.7,0.1-1.2,0.4c-0.5,0.3-0.9,0.4-1.3,0.4
		c-0.7,0-1.2-0.2-1.4-0.5l-0.8-1c-0.1,0.1-0.3,0.5-0.6,1.2c-0.3,0.7-0.6,1-1,1c-0.6-0.6-1.2-0.9-1.7-0.9c0.4-0.9,2-2.8,4.9-5.6
		c0,1.1,0.2,1.8,0.5,2.2c0.6-0.9,1.5-1.7,2.8-2.7c1.6-1.2,2.6-2,3.1-2.4l1.4,1.5c0.2-1.2,0-2.9-0.4-5.1c-0.4-2.2-0.6-3.7-0.6-4.5
		c0-1,0.2-1.8,0.6-2.4c-0.4-0.4-0.9-0.6-1.3-0.6c-0.3,0-0.5,0.1-0.6,0.3c0-0.1-0.2-0.5-0.4-1.2c-0.3-0.7-0.4-1.3-0.4-1.8
		c0-0.7,0.4-1.2,1.2-1.4l1-0.4c-0.8-0.6-1.2-1.9-1.2-4c0,0.3,0.3,0.7,0.8,1.4c0.7-0.7,1-1.9,1-3.6c0-4.7-3.4-11.1-10.1-19.3
		c0-1.9,1-4.3,2.9-7.2c-0.2-0.3-0.6-1-1.3-1.9c-2,0.5-2.9,2.6-2.7,6.3c-2.8-4.8-5.3-8.8-7.4-12c-0.1,0.1-0.3,0.5-0.6,1.2
		c-0.3,0.7-0.6,1-0.8,1c-0.3-0.2-0.9-0.6-1.8-1.3c1,0,2-0.4,2.9-1.3l-4.2-7.4l-4.2-7.4l-1.4,1.4c0-1.5-0.1-3.6-0.4-6.3
		c4.3,6.4,8.2,12.5,11.9,18.3l0.5,0.5c-3.4-6.2-7-12.8-10.6-19.8c0.3,0.5,0.9,1.2,1.5,2.2c0.6-0.2,1.2-0.7,1.9-1.7
		c1.2-1.4,1.9-2.1,2-2.3c-0.7-0.7-2.3-1-4.7-1c-1.5,0-4.1-0.9-7.6-2.7c1.5,0,3.1-0.8,5-2.4c-0.5-0.4-1.2-0.6-1.9-0.6
		c-0.7,0-1.4,0.2-2.2,0.6c-0.1-0.3-0.4-0.8-1-1.7c-0.4-0.6-0.6-1.2-0.6-1.9c0-0.8,0.2-1.4,0.6-2c0.8-0.9,1.2-1.5,1.3-1.7
		c0,1.5,0.2,2.8,0.6,3.7c0.7-0.8,1.9-2,3.6-3.7c0.3,0.3-0.1,0.9-1,1.8l1.2,1.2c9.4,0,16.4-0.2,21.1-0.6c1.1,3.2,3.5,8.1,7.3,14.5
		c0.3,0,1.3-0.7,2.8-2.2c0.7,0.1,1,0.7,1,1.8c0,0.9-0.7,2.1-2.2,3.4c-1.5,1.3-2.7,2-3.6,2c-1.3,0-1.9-0.2-1.9-0.6l-0.9,1
		c0.8,0.8,2.7,1.3,5.8,1.5c-1,0-2,0.5-2.9,1.4c0.3,0.3,0.8,0.3,1.4,0.1c0.9-0.3,1.4-0.4,1.5-0.4c0,1.8-0.5,6.2-1.4,13.2
		c2.3,1.8,3.4,3.5,3.3,5.1c0,0.2,0.3,0.6,0.8,1.3c0.5-0.6,1.3-1.5,2.4-2.6c-1.8-1.5-2.7-4.2-2.7-7.9c-1.1-0.8-1.7-2.5-1.7-5.2
		c0,0.6,0.6-0.5,1.7-3.2c0.4,0.7,1.1,1.6,1.9,2.7c-1,0-1.8,0.3-2.2,0.9c0.7,0.7,2.1,1,4.4,1c-0.3,1.2-1.2,2.9-2.8,5.2
		c1.2,0.3,3,1.3,5.4,3.2c0.3-0.3,1.1-0.6,2.5-0.9c1.4-0.3,2.3-0.8,2.8-1.3c-0.2,1.5,0,2.6,0.5,3.6c1.9-3.7,3.5-6.6,4.9-8.7
		c0.4,0.9,0.6,2,0.6,3.2c0.5,0.5,1.5,0.8,2.9,0.8c-1,0.6-2,0.9-2.8,0.9c-0.7,0-1.3-0.2-1.8-0.5l-0.6,3.1c2-0.5,4.1-0.8,6.3-0.8
		C475.9,66,477.7,66.4,478.9,67.4z M428.7,91.6c0,0.6-0.4,1.3-1.2,2.2c-0.8,0.9-1.5,1.3-2,1.3c-0.7,0-1.1-0.1-1.3-0.4
		c-0.1-0.2-0.3-0.1-0.6,0.1c0.9,1.5,1.4,2.4,1.4,2.9c-1.9,1.1-3.1,1.7-3.6,1.7c-0.9,0-2.4-0.8-4.3-2.3c-1.9-1.5-2.9-2.7-2.9-3.6
		c0-1.1,1.1-3.3,3.2-6.5c0.5,0.8,1.3,1.8,2.3,2.9c0.7,0,1-0.5,1-1.4c0.3,0,1.3,0.5,3.1,1.4c0.3-0.6,0.3-1.5,0.1-2.7
		c-0.3-1.5-0.3-2.5,0-3.2c0.6,1.8,2.2,3.9,4.7,6.4c-0.7,0.1-1.2-0.1-1.7-0.5C427.4,90.5,428,91,428.7,91.6z M418,73.9l-0.6-1
		l-2.6,1.7l0.6,1L418,73.9z M417-24H415v-1.2h1.9V-24z M419.9,68l-0.5-1.2c-0.3-0.7-0.9-1-1.5-1c-0.3,0-0.8,0.1-1.3,0.3
		c-0.5,0.2-0.8,0.3-0.9,0.3c0.7-0.6,1-1.5,1-2.7C417.5,64.6,418.5,66,419.9,68z M423.4,61.9c-2,0-3.2-0.1-3.6-0.4
		c-1,1-1.5,1.9-1.5,2.6c0-0.9-0.6-1.3-1.8-1.3c1.3-1.3,2.5-1.9,3.6-1.9c0.5,0,1.2,0.2,2,0.5C422.8,61.7,423.3,61.9,423.4,61.9z
		 M419.5,12.2l-0.9,2.8l-1-0.4l0.9-2.4H419.5z M420.3,1.8h-1.2l-0.8-2.6l1-0.3L420.3,1.8z M430.9-1.8c0,1.7-0.8,2.9-2.4,3.7
		c-0.2,0-0.4-0.2-0.6-0.7c-0.2-0.5-0.4-0.7-0.4-0.8h-1.9c-0.5,0.5-0.8,1-0.8,1.4c0,0.3,0.1,0.5,0.3,0.6l-0.5-0.6
		c-0.3-0.3-0.8-0.5-1.7-0.6c-0.5-0.2-0.8-0.9-0.8-2.2c0-1.3-0.1-2-0.2-2.1C421.1-2.4,420-2,418.6-2c1-0.8,2.5-2.1,4.5-4.1
		c-0.3,0.2-0.4,1.2-0.4,2.9c1.3-0.5,1.9-2,1.9-4.4l1.5,1.4c0.3-0.4,0.5-0.9,0.5-1.3c1.5,0,2.2,0.5,2.2,1.4c0,0.2,0,0.3-0.1,0.4
		c0.1,0.1,0.5,0.7,1.3,1.9C430.6-2.8,430.9-2.2,430.9-1.8z M428,81.3c-0.5,0-1.5-0.8-3.1-2.3h-2.6c0,0.5-0.3,1.2-0.9,1.9
		c1,0.5,2.6,1.8,4.7,3.8C427.4,83.6,428,82.4,428,81.3z M424,16c0-0.6,0.1,0,0.3,1.8c0.1,0.9,0,1.7-0.3,2.3c0-0.3-0.3-0.7-0.9-1.1
		c-0.6-0.4-1.1-0.6-1.5-0.6v-4.1c1.7,0.4,2.3,0.7,1.9,0.9c-0.9,0.5-1.3,1-1.3,1.4l1.2,1.3C423.8,17.4,424,16.8,424,16z M423.9,67.9
		h-1l-0.9-2.4l1-0.4L423.9,67.9z M424.5,80.4l-0.5-1l-1.7,0.9v1.2L424.5,80.4z M426.2,9.5c-0.3,0.4-0.5,1.3-0.5,2.6
		c-1.2-1.1-1.9-1.7-2-1.7c0.1-0.1,0.2-0.1,0.4-0.1c0.3,0,0.5,0.1,0.8,0.4L426.2,9.5z M426,115.9h-1.2V114h1.2V115.9z M428.9,6.2
		l-0.5,1l-2.4-0.8V5.3L428.9,6.2z M432.6,108.7h-1.2v-2h1.2V108.7z M440.3-3.2c0,0.6-0.6,1.8-1.8,3.6c-1.5,2.3-2.2,3.5-2.3,3.7V0.3
		c-0.3-0.2-1-0.6-1.9-1.3c-0.9,1.8-1.4,3.2-1.4,4.4c-0.6-0.6-0.9-1.3-0.9-2.2c0-0.6,0.2-1.3,0.6-2.2h3.7
		C437.5-1,438.8-1.7,440.3-3.2z M438.6,10.3c-0.2-0.3-0.7-0.9-1.7-1.8c-0.9,0-2.1,0.9-3.8,2.6c1.2,0.3,2.9,1,5.1,2.3
		c-1.8,0.1-3.7-0.4-5.8-1.4c0-1.1,1-3.2,3.1-6.4C437.6,6.5,438.6,8.1,438.6,10.3z M435.5,19.6l-0.9,2l-1-0.5l0.9-1.8L435.5,19.6z
		 M438.8,136l-4.9-0.8v-1.3l4.9,0.8V136z M441,114.8c-0.7-0.6-2.8-1.5-6.4-2.7c0.8-1.3,2.6-2.6,5.4-4.1c0.8,0.7,1.2,1.5,1.2,2.4
		c0,0.6-0.2,1.2-0.5,1.9c0-0.4,0.1-0.9,0.4-1.4c0.1-0.3,0-0.5-0.3-0.8c-0.7,0.8-1,1.5-1,2.2C439.7,113.2,440.2,114,441,114.8z
		 M437.7,86.2v-2.7h-1.3v2.7H437.7z M444,15.1l-0.8,4.1c-0.3,0-0.7,0.1-1,0.4c-0.3,0.3-0.7,0.4-1.1,0.4c-0.5,0-0.8-0.1-0.8-0.4
		c0-0.1,0.1-0.2,0.2-0.4c0.1-0.2,0.2-0.3,0.2-0.4c0-0.3-0.3-0.4-0.8-0.4c-0.5,0-1.3,0.4-2.4,1.3c0.8-1.9,1-3.7,0.8-5.5
		C439.2,14.9,441.1,15.1,444,15.1z M444.9,44.1l-2.2,1v-1.2l1.7-0.9L444.9,44.1z M447.6,65.4v-1.3l-3.5-0.8v1.2L447.6,65.4z
		 M446.4,59.2l-0.9-2l-1,0.4l0.9,1.7H446.4z M447,127.9l-0.8,0.6l-1.7-1.8l0.6-0.8L447,127.9z M448.1,20.8c-0.9-1.9-1.7-2.8-2.3-2.8
		c0.7-0.5,1.2-0.8,1.7-0.8C447.9,17.6,448.1,18.8,448.1,20.8z M448.6,105.2h-1l-0.9,2.4l1,0.4L448.6,105.2z M450.9-16.4h-1.3
		l-0.8-3.5h1.2L450.9-16.4z M457.9,71.7l-3.5-1.7l-0.4,1l3.3,1.7L457.9,71.7z M460,115c0,1.5-0.9,3.5-2.7,5.9
		c0.3,1.9,0.6,4.6,0.6,8.2c-0.6-1.1-1.2-1.7-1.7-1.7c-0.2,0.1-0.3,0.2-0.4,0.3c0-2.2,0.3-5.2,0.9-9.1l1.4-9.1
		C459.4,112,460,113.9,460,115z M458,34.2l-0.9,1.9l-1-0.4l0.9-1.9L458,34.2z M460.6,26c-0.5,0.9-0.8,1.5-0.8,2
		c-0.5-0.3-1.3-0.6-2.4-1c-0.3-0.2-0.6-0.6-0.6-1.2c0,0.5,0.6,0.8,1.8,0.8C459.5,26.7,460.2,26.4,460.6,26z M464.2-24h-5.5v-1.2h5.5
		V-24z M460.2,35.2v-2.7h-1.3v2.7H460.2z M462.3,21.5l-2.2,0.9v-1l1.8-0.9L462.3,21.5z M462.7,99.4v-4.1c-0.1,0.3-0.9,0.5-2.4,0.5
		v3.5l1.7-1.4C462.3,98.3,462.6,98.8,462.7,99.4z M462.4,99.5l-0.9,2.8l-1-0.4l0.9-2.4H462.4z M463.9,107.9h-1.3V106h1.3V107.9z
		 M468.3,56.2l-1.8,2.6l-0.9-0.6l1.7-2.6L468.3,56.2z M468.7-24H466v-1.2h2.7V-24z M470.5,74.1l-2.4,4.2l-1-0.5l2.4-4.1L470.5,74.1z
		 M468.9,79.1h-1l-0.9,2.4l1,0.4L468.9,79.1z M484,58.8c-1.6-0.5-3-0.8-4.1-0.8c-0.7,0-1.3,0.1-1.8,0.3l2.2,2.4
		c-0.1-0.4-0.7-0.6-1.8-0.6c-0.2,0-1.2,0.6-3.2,1.9c0.1,0.1,0.5,0.3,1.3,0.6c0.5,0.2,0.8,0.6,0.8,1.2h1.8c0.3-0.3,0.3-0.7,0.3-1.2
		c-0.1-0.4-0.2-0.8-0.3-1c0.6,0.6,0.9,1.1,0.9,1.5c0,0.3-0.1,0.6-0.4,0.9c0.9,0.9,1.3,1.8,1.3,2.4c-2.9-0.7-7-3.6-12.3-8.8
		c0.6-0.8,0.9-1.4,0.9-1.9c2.9,2,4.3,2.9,4.2,2.9c0.9,0,2.2-0.5,3.7-1.5c-0.1-0.3-1.1-0.9-3-1.9c-1.9-1-3.1-1.8-3.5-2.4h3.8
		c2.2,0,4,0.7,5.2,2.2C481.9,57.1,483.2,58.4,484,58.8z M471.4,88.4c-1.1,0-2-0.3-2.7-1c0.9-0.8,1.7-1.7,2.7-2.9V88.4z M472.5,79.5
		l-1.8,1.8l-0.8-0.8l1.8-1.8L472.5,79.5z M479.6,52.6c-2.9-1.1-5.2-1.7-6.8-1.7l0.6-0.6c0.4-0.3,0.9-0.5,1.5-0.5
		C476.2,49.8,477.8,50.8,479.6,52.6z M512.3,31.1c-1.5,2.6-6,10.2-13.4,22.9c-0.2,0.3-1.2,0.6-3.1,1.1c-1.9,0.5-3.2,1-3.8,1.6
		c0.2,0.3,1.2,0,3.2-0.9h2.6c-1,1.6-2.3,4-4,7.2c-0.5-2-3-4.1-7.6-6.3c0.5,0,1.2-0.5,2.2-1.4c-1-0.6-2.7-1-5-1.3
		c-1.5-3.8-2.6-5.6-3.5-5.6c-2.2,0-4.5,0.2-6.8,0.6l8.8-17.9H512.3z M475.8-24h-1.9v-1.2h1.9V-24z M482.8,25.5l-0.9,1.9l-1-0.5
		l0.9-1.8L482.8,25.5z M484.8,25.1l-0.5,1l-1.8-0.9l0.4-1L484.8,25.1z M491.2,66.6c-2.3-1.1-4-1.7-5-1.7c1.5-1.5,2.3-2.8,2.3-4.1
		c1.3,0,2.2,0.3,2.7,0.9V66.6z M499.3,50.7h-3.3c-0.5,0-1.5,0.4-2.9,1.2c-1.5,0.8-2.5,1.2-3.2,1.2l4.2,1c0.3-1.1,1.1-2,2.6-2.6
		C497.5,51.4,498.4,51.1,499.3,50.7z M494.4,133.4h-1.3v-2h1.3V133.4z M497.7,54.6v-1.3h-2v1.3H497.7z M508.6,47.1V46l-2.2,0.9
		l0.4,1L508.6,47.1z"/>
</g>
<g id="XMLID_2_">
</g>
<g id="XMLID_340_">
</g>
<g id="XMLID_341_">
</g>
<g id="XMLID_342_">
</g>
<g id="XMLID_343_">
</g>
<g id="XMLID_344_">
</g>
</svg>
